<?xml version="1.0" encoding="utf-8"?>
<!-- Generator: Adobe Illustrator 18.1.1, SVG Export Plug-In . SVG Version: 6.00 Build 0)  -->
<svg version="1.1" id="Layer_1" xmlns="http://www.w3.org/2000/svg" xmlns:xlink="http://www.w3.org/1999/xlink" x="0px" y="0px"
	 viewBox="0 0 910.9 177.6" enable-background="new 0 0 910.9 177.6" xml:space="preserve">
<path fill="#FFFFFF" d="M305.4,42.6c5.5,0,9.7,3.9,9.7,9s-4.2,9-9.7,9s-9.5-4.2-9.5-9C295.9,46.8,299.9,42.6,305.4,42.6z"/>
<path fill="#FFFFFF" d="M759.5,46.2c3.2,0,5.6,2.2,5.6,5.2c0,3-2.5,5.2-5.6,5.2c-3.2,0-5.5-2.5-5.5-5.2
	C754,48.7,756.3,46.2,759.5,46.2z"/>
<path fill="#FFFFFF" d="M115.1,10.7c-28,0-51,22-52.4,49.6C35.1,61.7,13,84.6,13,112.6c0,28.8,23.5,52.3,52.4,52.3l80.8,0l0.2,0
	c11.6,0,21.1-9.4,21.1-21v-3.4V63C167.6,34.2,144.1,10.7,115.1,10.7z M58.8,141.8c-10.9-2.8-19.4-11.3-22.3-22.1l0-0.1
	c-0.3-1.2-0.4-2-0.5-3.2h0.5h22.4V141.8z M86.5,142.7h-20c-0.5,0-1,0-1.4,0V93.2h21.4V142.7z M115.5,142.7H94V52.5h21.4V142.7z
	 M144.8,138.2c0,2.5-2,4.6-4.5,4.6H123V69.9h21.7V138.2z"/>
<g>
	<path fill="#FFFFFF" d="M220.6,51.9h16.2v51.6l29.4-31.4H286l-28.2,28.9l29.1,42h-19.1l-20.9-30.7l-10.1,10.5v20.3h-16.2V51.9z"/>
	<path fill="#FFFFFF" d="M297.1,72.1h16.2v70.9h-16.2V72.1z"/>
	<path fill="#FFFFFF" d="M325.8,133.7l7.2-11c7.8,5.8,16,8.7,23.2,8.7c7,0,11-3,11-7.7v-0.3c0-5.5-7.5-7.4-15.8-9.9
		c-10.5-3-22.2-7.3-22.2-20.8v-0.3c0-13.4,11.1-21.6,25.2-21.6c8.9,0,18.5,3.1,26,8.1l-6.4,11.5c-6.8-4.2-14.1-6.7-20-6.7
		c-6.3,0-9.9,3-9.9,7V91c0,5.2,7.7,7.4,16,10.1c10.3,3.2,22,7.9,22,20.7v0.3c0,14.9-11.5,22.3-26.3,22.3
		C345.8,144.3,334.7,140.7,325.8,133.7z"/>
	<path fill="#FFFFFF" d="M390.5,133.7l7.2-11c7.8,5.8,16,8.7,23.2,8.7c7,0,11-3,11-7.7v-0.3c0-5.5-7.5-7.4-15.8-9.9
		c-10.5-3-22.2-7.3-22.2-20.8v-0.3c0-13.4,11.1-21.6,25.2-21.6c8.9,0,18.5,3.1,26,8.1l-6.4,11.5c-6.8-4.2-14.1-6.7-20-6.7
		c-6.3,0-9.9,3-9.9,7V91c0,5.2,7.7,7.4,16,10.1c10.3,3.2,22,7.9,22,20.7v0.3c0,14.9-11.5,22.3-26.3,22.3
		C410.5,144.3,399.3,140.7,390.5,133.7z"/>
	<path fill="#FFFFFF" d="M462.2,74.5h6.6v12.2c4.4-7.1,10.6-13.8,22.8-13.8c11.9,0,19.3,6.8,23.1,14.8c4.4-7.7,11.8-14.8,24.7-14.8
		c16.2,0,26.3,11.4,26.3,28.6v41.5h-6.6v-40.7c0-14.8-7.7-23.4-20.3-23.4c-11.5,0-21.6,8.9-21.6,24.2v39.9h-6.6v-41.1
		c0-14.2-7.8-23-20-23c-12.2,0-21.9,10.7-21.9,24.6v39.5h-6.6V74.5z"/>
	<path fill="#FFFFFF" d="M578,108.8v-0.3c0-19.9,14-35.7,32.5-35.7c19.2,0,31.4,15.6,31.4,35.8c0,1.2,0,1.6-0.1,2.7h-56.8
		c1.2,17.1,13.4,27,26.9,27c10.6,0,17.9-4.7,23.5-10.7l4.6,4c-7,7.5-15.2,12.9-28.3,12.9C593.5,144.6,578,130.2,578,108.8z
		 M634.8,105.5c-0.9-13.8-8.9-26.6-24.6-26.6c-13.6,0-24,11.4-25.2,26.6H634.8z"/>
	<path fill="#FFFFFF" d="M660.3,125.4V80.5h-9.9v-6h9.9V52.6h6.6v21.9h24v6h-24v44.2c0,9.8,5.8,13.3,13.7,13.3
		c3.4,0,6.2-0.7,10.1-2.4v6.2c-3.5,1.6-6.8,2.4-11.1,2.4C668.9,144.2,660.3,138.4,660.3,125.4z"/>
	<path fill="#FFFFFF" d="M705.3,74.5h6.6v19.5c5.4-12.2,16.8-21.1,30.3-20.5v7.2h-0.7c-15.8,0-29.7,11.9-29.7,34.2v28.1h-6.6V74.5z"
		/>
	<path fill="#FFFFFF" d="M755.8,74.5h6.6v68.5h-6.6V74.5z"/>
	<path fill="#FFFFFF" d="M776.1,109v-0.3c0-19.2,15.3-35.8,34.9-35.8c12.9,0,20.9,5.9,27.4,12.6l-4.7,4.8
		c-5.9-6-12.6-11.3-22.8-11.3c-15.6,0-27.7,13-27.7,29.4v0.3c0,16.5,12.5,29.7,28.2,29.7c9.7,0,17.2-5,23-11.4l4.6,4
		c-7,7.9-15.3,13.6-27.9,13.6C791.2,144.6,776.1,128.2,776.1,109z"/>
	<path fill="#FFFFFF" d="M849.9,134.4l3.9-5.2c7.5,5.8,15.8,9,24.6,9c9.3,0,16.5-5.1,16.5-13v-0.3c0-8.1-8.6-11-18.1-13.7
		c-11.1-3.2-23.5-6.6-23.5-18.8v-0.3c0-11,9.3-18.9,22.6-18.9c8.2,0,17.5,3,24.3,7.5l-3.5,5.5c-6.3-4.2-13.8-6.8-21.1-6.8
		c-9.4,0-15.6,5.1-15.6,11.9v0.3c0,7.7,9.3,10.5,19.1,13.3c11,3.1,22.6,7.1,22.6,19.2v0.3c0,12.2-10.5,20-23.6,20
		C868.1,144.3,857.2,140.3,849.9,134.4z"/>
</g>
</svg>
